<?xml version="1.0" encoding="utf-8"?>
<!-- Generator: Adobe Illustrator 24.2.0, SVG Export Plug-In . SVG Version: 6.00 Build 0)  -->
<svg version="1.1" id="Layer_1" xmlns="http://www.w3.org/2000/svg" xmlns:xlink="http://www.w3.org/1999/xlink" x="0px" y="0px"
	 width="127px" height="70px" viewBox="0 0 127 70" style="enable-background:new 0 0 127 70;" xml:space="preserve">
<style type="text/css">
	.st0{fill:url(#SVGID_1_);}
	.st1{fill:#1E2024;}
</style>
<g>
	
		<linearGradient id="SVGID_1_" gradientUnits="userSpaceOnUse" x1="60.7764" y1="30.1194" x2="60.7764" y2="5.9005" gradientTransform="matrix(0.9998 1.808901e-02 -1.808901e-02 0.9998 0.649 -1.1383)">
		<stop  offset="0" style="stop-color:#FFB70A"/>
		<stop  offset="0.603" style="stop-color:#F97D2C"/>
		<stop  offset="1" style="stop-color:#F55B3F"/>
	</linearGradient>
	<path class="st0" d="M46.2,26.3c3.6,0.1,3.6,3.5,7.2,3.6c3.6,0.1,3.7-3.4,7.4-3.3c3.6,0.1,3.6,3.5,7.2,3.6c3.6,0.1,3.7-3.4,7.4-3.3
		c3.6,0.1,3.6,3.4,7.1,3.6c0.1-0.8,0.2-1.6,0.2-2.5c0.2-12-9.3-21.9-21.3-22.1c-12-0.2-21.9,9.3-22.1,21.3c0,0.8,0,1.7,0.1,2.5
		C42.5,29.4,42.7,26.3,46.2,26.3z"/>
	<g>
		<path class="st1" d="M11.8,58.2L9.1,59l-1.4-3l-3.4,1l0.4,3.3L2.2,61L0,42.7l4-1.2L11.8,58.2z M4,54.5l2.6-0.8l-3.9-8.4L4,54.5z"
			/>
		<path class="st1" d="M20.6,43l2.2,13l-2.5,0.4l-3-17.9l3.5-0.6l4.7,10.2l-1.8-10.7l2.5-0.4l3,17.9l-2.9,0.5L20.6,43z"/>
		<path class="st1" d="M37.3,35.7l4.5-0.3c2.8-0.2,4.4,1.3,4.5,4.2l0.6,9.2c0.2,2.9-1.1,4.6-3.9,4.8l-4.5,0.3L37.3,35.7z M40.3,38.1
			l0.9,12.9l1.6-0.1c0.9-0.1,1.4-0.6,1.3-1.9l-0.6-9.4c-0.1-1.3-0.7-1.7-1.6-1.7L40.3,38.1z"/>
		<path class="st1" d="M65.6,53.3l-2.9-0.1l-0.4-3.3l-3.5-0.1l-0.6,3.3l-2.6-0.1L59,35l4.2,0.1L65.6,53.3z M59.2,47.4l2.7,0.1
			l-1.2-9.2L59.2,47.4z"/>
		<path class="st1" d="M80.9,49.4l3.5-12.6l3.9,0.5l-2.2,18L83.5,55l1.6-12.9l-3.5,12.7l-2.7-0.3l-0.5-13l-1.6,12.7l-2.5-0.3l2.2-18
			l3.9,0.5L80.9,49.4z"/>
		<path class="st1" d="M104.4,59l-2.8-0.6l0.2-3.3l-3.4-0.8l-1.2,3.1l-2.6-0.6l6.8-17.1l4.1,0.9L104.4,59z M99.3,52l2.7,0.6l0.7-9.3
			L99.3,52z"/>
		<path class="st1" d="M119.3,49.6l-4.1,12.5l-2.4-0.8l5.6-17.3l3.4,1.1l-0.6,11.2l3.3-10.3l2.4,0.8l-5.6,17.3l-2.8-0.9L119.3,49.6z
			"/>
	</g>
	<g>
		<path class="st1" d="M11.9,24.7l1.9,0l0,2.7c0,1.4-0.7,2.1-2,2.1c-1.3,0-2-0.8-2-2.2l0.1-4.5c0-1.4,0.7-2.1,2-2.1
			c1.3,0,2,0.8,2,2.2l0,0.8l-1.3,0l0-0.9c0-0.6-0.3-0.9-0.7-0.9c-0.4,0-0.7,0.2-0.7,0.8l-0.1,4.6c0,0.6,0.3,0.8,0.7,0.8
			c0.4,0,0.7-0.2,0.7-0.8l0-1.6l-0.6,0L11.9,24.7z"/>
		<path class="st1" d="M16.8,23c0-1.4,0.8-2.1,2.1-2.1c1.3,0,2,0.8,2,2.2l-0.1,4.5c0,1.4-0.8,2.1-2.1,2.1c-1.3,0-2-0.8-2-2.2
			L16.8,23z M18.1,27.6c0,0.6,0.3,0.9,0.7,0.9c0.4,0,0.7-0.2,0.7-0.8l0.1-4.6c0-0.6-0.3-0.9-0.7-0.9c-0.4,0-0.7,0.2-0.7,0.8
			L18.1,27.6z"/>
		<path class="st1" d="M25.9,22.3c-0.4,0-0.7,0.2-0.7,0.8l0,0.9l-1.3,0l0-0.8c0-1.4,0.7-2.1,2-2.1c1.3,0,2,0.8,2,2.2
			c-0.1,2.8-3,3.7-2.8,5.2l2.5,0l0,1.2l-3.9-0.1l0-1.1c0-2.5,2.7-2.9,2.8-5.4C26.6,22.5,26.4,22.3,25.9,22.3z"/>
	</g>
	<g>
		<path class="st1" d="M92.3,29.6l0,1.3l-1.3,0l0-1.3L92.3,29.6z"/>
		<path class="st1" d="M98,27.8l0,1.1c0,1.4-0.7,2.1-2,2.1c-1.3,0-2-0.8-2-2.2l0.1-4.4c0-1.4,0.7-2.1,2-2.1c1.3,0,2,0.8,2,2.2l0,0.8
			l-1.3,0l0-0.9c0-0.6-0.3-0.8-0.7-0.9c-0.4,0-0.7,0.2-0.7,0.8L95.4,29c0,0.6,0.3,0.8,0.7,0.8c0.4,0,0.7-0.2,0.7-0.8l0-1.2L98,27.8z
			"/>
		<path class="st1" d="M101.2,24.6c0-1.4,0.8-2.1,2.1-2.1c1.3,0,2,0.8,2,2.2l-0.1,4.4c0,1.4-0.8,2.1-2.1,2.1c-1.3,0-2-0.8-2-2.2
			L101.2,24.6z M102.5,29.1c0,0.6,0.3,0.8,0.7,0.9c0.4,0,0.7-0.2,0.7-0.8l0.1-4.6c0-0.6-0.3-0.8-0.7-0.9c-0.4,0-0.7,0.2-0.7,0.8
			L102.5,29.1z"/>
		<path class="st1" d="M111.3,28.7l1-6l1.9,0l-0.2,8.5l-1.3,0l0.1-6.1l-1,6.1l-1.3,0l-0.9-6l-0.1,6l-1.2,0l0.2-8.5l1.9,0L111.3,28.7
			z"/>
	</g>
</g>
</svg>
